<svg xmlns="http://www.w3.org/2000/svg" viewBox="0 0 240 240">
  <rect width="240" height="240" fill="#fffefe"/>
  <path fill="#262128" d="M42 226c11-45 39-73 80-73s69 28 80 73z"/>
  <path fill="#e9a77c" d="M75 106c0-40 20-68 48-68s48 28 48 68c0 40-21 67-48 67s-48-27-48-67z"/>
  <path fill="#2d1717" d="M63 93c8-38 39-62 75-55 30 6 50 35 48 71-17-22-39-34-67-33-25 1-43 7-56 17z"/>
  <path fill="#3b2020" d="M66 98c5-33 24-53 58-61-7 23-25 43-58 61z"/>
  <path fill="#ef7d9b" d="M167 63l11 8-8 11-11-8z"/>
  <circle cx="106" cy="106" r="6" fill="#3a251f"/>
  <circle cx="145" cy="106" r="6" fill="#3a251f"/>
  <path fill="none" stroke="#3a251f" stroke-linecap="round" stroke-width="4" d="M99 92c8-4 17-4 25 0M138 92c8-4 17-4 25 0"/>
  <path fill="none" stroke="#9b5044" stroke-linecap="round" stroke-width="4" d="M110 136c12 10 27 10 39 0"/>
  <path fill="#251f26" d="M42 226c13-38 33-62 61-74l20 74zM202 226c-13-38-34-62-62-74l-17 74z"/>
  <path fill="none" stroke="#ffffff" stroke-width="5" d="M49 209c25 12 54 17 88 14M160 221c19-3 31-8 42-16"/>
</svg>
